<svg width="27" height="21" viewBox="0 0 27 21" fill="none" xmlns="http://www.w3.org/2000/svg">
<path d="M24.3 18.375H21.6V6.89062L13.5 11.8125L5.4 6.89062V18.375H2.7V2.625H4.32L13.5 8.20312L22.68 2.625H24.3V18.375ZM24.3 0H2.7C1.2015 0 0 1.16813 0 2.625V18.375C0 19.0712 0.284463 19.7389 0.790812 20.2312C1.29716 20.7234 1.98392 21 2.7 21H24.3C25.0161 21 25.7028 20.7234 26.2092 20.2312C26.7155 19.7389 27 19.0712 27 18.375V2.625C27 1.92881 26.7155 1.26113 26.2092 0.768845C25.7028 0.276562 25.0161 0 24.3 0Z" fill="white"/>
</svg>
