<svg width="29" height="16" viewBox="0 0 29 16" fill="none" xmlns="http://www.w3.org/2000/svg">
<path d="M27.9269 1.48508C28.1185 0.87841 27.9249 0.434089 27.0134 0.435649L23.9938 0.440816C23.2255 0.442131 22.8752 0.827401 22.6832 1.25021C22.6832 1.25021 21.1549 4.79831 18.9839 7.10091C18.283 7.77105 17.9626 7.98284 17.5798 7.98349C17.3884 7.98382 17.1099 7.77305 17.1087 7.16671L17.0976 1.50361C17.0962 0.776004 16.8739 0.453001 16.2337 0.454097L11.4889 0.462217C11.0097 0.463037 10.7212 0.799954 10.7219 1.12073C10.7232 1.80922 11.8113 1.96644 11.9266 3.90654L11.9348 8.11573C11.9366 9.03762 11.762 9.20614 11.3765 9.2068C10.3535 9.20855 7.85711 5.6543 6.37177 1.58326C6.08246 0.792245 5.79131 0.473272 5.02025 0.474592L2.0021 0.479757C1.13879 0.481235 0.967426 0.866197 0.968249 1.28868C0.969727 2.04759 2.00007 5.80124 5.75214 10.7616C8.25367 14.1489 11.7697 15.9815 14.9696 15.976C16.8876 15.9728 17.1236 15.5642 17.1223 14.8601L17.1173 12.2965C17.1157 11.4802 17.2985 11.3156 17.9057 11.3146C18.3518 11.3138 19.1205 11.5263 20.9151 13.1571C22.9649 15.0913 23.3053 15.9605 24.455 15.9585L27.4732 15.9533C28.3351 15.9519 28.7653 15.543 28.5159 14.7376C28.2431 13.9361 27.2632 12.7707 25.9635 11.3921C25.257 10.6057 24.202 9.75989 23.8803 9.33666C23.4318 8.79106 23.5608 8.54961 23.8779 8.06399C23.8792 8.06529 27.5474 3.1535 27.9269 1.48508Z" fill="white"/>
</svg>
